<svg width="814" height="67" viewBox="0 0 814 67" fill="none" xmlns="http://www.w3.org/2000/svg">
<path id="Your health and fitness website" d="M0.825 14.95H6.325L16.445 31.725H16.555L26.62 14.95H32.23L18.865 36.565V54H14.08V36.565L0.825 14.95ZM44.3721 54.33C41.6588 54.33 39.2388 53.725 37.1121 52.515C35.0221 51.305 33.3904 49.6733 32.2171 47.62C31.0804 45.53 30.5121 43.2017 30.5121 40.635C30.5121 38.0683 31.0804 35.74 32.2171 33.65C33.3904 31.56 35.0221 29.91 37.1121 28.7C39.2388 27.49 41.6588 26.885 44.3721 26.885C46.9754 26.885 49.3221 27.4717 51.4121 28.645C53.5388 29.7817 55.1888 31.395 56.3621 33.485C57.5721 35.575 58.1771 37.9583 58.1771 40.635C58.1771 43.3117 57.5721 45.695 56.3621 47.785C55.1888 49.8383 53.5388 51.4517 51.4121 52.625C49.3221 53.7617 46.9754 54.33 44.3721 54.33ZM44.3721 50.26C46.0588 50.26 47.5988 49.8567 48.9921 49.05C50.4221 48.2433 51.5404 47.1067 52.3471 45.64C53.1904 44.1733 53.6121 42.505 53.6121 40.635C53.6121 38.765 53.2088 37.0967 52.4021 35.63C51.5954 34.1633 50.4771 33.0267 49.0471 32.22C47.6538 31.3767 46.0954 30.955 44.3721 30.955C42.5388 30.955 40.9071 31.395 39.4771 32.275C38.0838 33.1183 37.0021 34.2733 36.2321 35.74C35.4621 37.2067 35.0771 38.8383 35.0771 40.635C35.0771 42.395 35.4621 44.0083 36.2321 45.475C37.0388 46.9417 38.1388 48.115 39.5321 48.995C40.9621 49.8383 42.5754 50.26 44.3721 50.26ZM74.2796 54.33C71.0896 54.33 68.6146 53.4133 66.8546 51.58C65.0946 49.71 64.2146 46.905 64.2146 43.165V27.215H68.6696V41.9C68.6696 44.8333 69.2013 46.96 70.2646 48.28C71.3646 49.6 73.0146 50.26 75.2146 50.26C76.6813 50.26 78.0196 49.8567 79.2297 49.05C80.4396 48.2433 81.393 47.0883 82.0896 45.585C82.823 44.045 83.1896 42.2483 83.1896 40.195V27.215H87.6446V54H83.1896V49.38H83.1346C82.1446 50.9567 80.8613 52.185 79.2846 53.065C77.7446 53.9083 76.0763 54.33 74.2796 54.33ZM100.158 27.215V32.11H100.268C101.258 30.46 102.487 29.1767 103.953 28.26C105.457 27.3433 107.125 26.885 108.958 26.885C109.435 26.885 109.802 26.9033 110.058 26.94V31.89L108.298 31.78C105.805 31.78 103.825 32.6417 102.358 34.365C100.892 36.0883 100.158 38.325 100.158 41.075V54H95.7034V27.215H100.158ZM134.533 13.52V31.89H134.588C135.652 30.2767 137.027 29.0483 138.713 28.205C140.437 27.325 142.362 26.885 144.488 26.885C147.495 26.885 149.86 27.8017 151.583 29.635C153.343 31.4683 154.223 34.2367 154.223 37.94V54H149.768V39.205C149.768 33.705 147.568 30.955 143.168 30.955C140.492 30.955 138.383 31.7983 136.843 33.485C135.303 35.1717 134.533 37.5183 134.533 40.525V54H130.078V13.52H134.533ZM185.851 40.14C185.851 40.58 185.833 40.9467 185.796 41.24C185.76 41.5333 185.741 41.7717 185.741 41.955H164.841C165.135 44.485 166.106 46.5017 167.756 48.005C169.406 49.5083 171.496 50.26 174.026 50.26C177.253 50.26 179.838 49.0683 181.781 46.685L184.916 49.325C182.313 52.6617 178.628 54.33 173.861 54.33C171.258 54.33 168.93 53.7617 166.876 52.625C164.823 51.4883 163.21 49.875 162.036 47.785C160.9 45.695 160.331 43.3117 160.331 40.635C160.331 37.995 160.9 35.63 162.036 33.54C163.173 31.45 164.731 29.8183 166.711 28.645C168.728 27.4717 171.001 26.885 173.531 26.885C175.915 26.885 178.041 27.4533 179.911 28.59C181.781 29.7267 183.23 31.3033 184.256 33.32C185.32 35.3367 185.851 37.61 185.851 40.14ZM173.476 30.955C171.313 30.955 169.443 31.615 167.866 32.935C166.326 34.255 165.355 36.0517 164.951 38.325H181.396C181.066 36.0883 180.205 34.31 178.811 32.99C177.418 31.6333 175.64 30.955 173.476 30.955ZM203.658 54.33C201.201 54.33 198.983 53.7617 197.003 52.625C195.023 51.4883 193.465 49.8933 192.328 47.84C191.191 45.7867 190.623 43.44 190.623 40.8C190.623 38.1967 191.173 35.8317 192.273 33.705C193.41 31.5783 194.968 29.91 196.948 28.7C198.928 27.49 201.165 26.885 203.658 26.885C205.638 26.885 207.453 27.3433 209.103 28.26C210.753 29.14 212.055 30.3867 213.008 32L213.118 31.945V27.215H217.573V54H213.283V49.16H213.228C212.238 50.81 210.918 52.0933 209.268 53.01C207.655 53.89 205.785 54.33 203.658 54.33ZM204.318 50.26C205.968 50.26 207.471 49.875 208.828 49.105C210.185 48.2983 211.266 47.18 212.073 45.75C212.88 44.2833 213.283 42.6333 213.283 40.8C213.283 38.9667 212.898 37.2983 212.128 35.795C211.358 34.2917 210.295 33.1183 208.938 32.275C207.581 31.395 206.041 30.955 204.318 30.955C202.631 30.955 201.091 31.3767 199.698 32.22C198.305 33.0267 197.186 34.1817 196.343 35.685C195.536 37.1517 195.133 38.8567 195.133 40.8C195.133 42.5967 195.518 44.21 196.288 45.64C197.058 47.07 198.14 48.2067 199.533 49.05C200.926 49.8567 202.521 50.26 204.318 50.26ZM230.361 13.52V54H225.906V13.52H230.361ZM246.593 54.33C241.973 54.33 239.663 51.5617 239.663 46.025V31.065H236.198V27.215H239.663V18.085L244.118 17.59V27.215H252.973V31.065H244.118V45.365C244.118 47.0517 244.356 48.28 244.833 49.05C245.31 49.7833 246.153 50.15 247.363 50.15C248.72 50.15 250.241 49.6917 251.928 48.775L253.083 52.68C252.203 53.1933 251.268 53.5967 250.278 53.89C249.288 54.1833 248.06 54.33 246.593 54.33ZM263.386 13.52V31.89H263.441C264.504 30.2767 265.879 29.0483 267.566 28.205C269.289 27.325 271.214 26.885 273.341 26.885C276.348 26.885 278.713 27.8017 280.436 29.635C282.196 31.4683 283.076 34.2367 283.076 37.94V54H278.621V39.205C278.621 33.705 276.421 30.955 272.021 30.955C269.344 30.955 267.236 31.7983 265.696 33.485C264.156 35.1717 263.386 37.5183 263.386 40.525V54H258.931V13.52H263.386ZM317.149 54.33C314.693 54.33 312.474 53.7617 310.494 52.625C308.514 51.4883 306.956 49.8933 305.819 47.84C304.683 45.7867 304.114 43.44 304.114 40.8C304.114 38.1967 304.664 35.8317 305.764 33.705C306.901 31.5783 308.459 29.91 310.439 28.7C312.419 27.49 314.656 26.885 317.149 26.885C319.129 26.885 320.944 27.3433 322.594 28.26C324.244 29.14 325.546 30.3867 326.499 32L326.609 31.945V27.215H331.064V54H326.774V49.16H326.719C325.729 50.81 324.409 52.0933 322.759 53.01C321.146 53.89 319.276 54.33 317.149 54.33ZM317.809 50.26C319.459 50.26 320.963 49.875 322.319 49.105C323.676 48.2983 324.758 47.18 325.564 45.75C326.371 44.2833 326.774 42.6333 326.774 40.8C326.774 38.9667 326.389 37.2983 325.619 35.795C324.849 34.2917 323.786 33.1183 322.429 32.275C321.073 31.395 319.533 30.955 317.809 30.955C316.123 30.955 314.583 31.3767 313.189 32.22C311.796 33.0267 310.678 34.1817 309.834 35.685C309.028 37.1517 308.624 38.8567 308.624 40.8C308.624 42.5967 309.009 44.21 309.779 45.64C310.549 47.07 311.631 48.2067 313.024 49.05C314.418 49.8567 316.013 50.26 317.809 50.26ZM343.523 27.215V32.055H343.578C344.641 30.405 346.016 29.14 347.703 28.26C349.389 27.3433 351.259 26.885 353.313 26.885C356.283 26.885 358.629 27.8383 360.353 29.745C362.076 31.615 362.938 34.4017 362.938 38.105V54H358.483V39.37C358.483 33.76 356.283 30.955 351.883 30.955C349.316 30.955 347.281 31.8167 345.778 33.54C344.274 35.2633 343.523 37.6283 343.523 40.635V54H339.068V27.215H343.523ZM382.142 54.33C379.685 54.33 377.449 53.7617 375.432 52.625C373.452 51.4883 371.875 49.8933 370.702 47.84C369.565 45.7867 368.997 43.44 368.997 40.8C368.997 38.1967 369.565 35.8317 370.702 33.705C371.839 31.5783 373.397 29.91 375.377 28.7C377.394 27.49 379.63 26.885 382.087 26.885C384.104 26.885 385.937 27.3433 387.587 28.26C389.274 29.14 390.63 30.3867 391.657 32H391.712V13.52H396.167V54H391.877V49.05H391.822C390.832 50.7 389.494 52.0017 387.807 52.955C386.157 53.8717 384.269 54.33 382.142 54.33ZM382.747 50.26C384.434 50.26 385.974 49.875 387.367 49.105C388.76 48.2983 389.86 47.18 390.667 45.75C391.474 44.2833 391.877 42.6333 391.877 40.8C391.877 38.9667 391.492 37.2983 390.722 35.795C389.952 34.2917 388.87 33.1183 387.477 32.275C386.12 31.395 384.562 30.955 382.802 30.955C381.115 30.955 379.557 31.3767 378.127 32.22C376.734 33.0267 375.615 34.1817 374.772 35.685C373.965 37.1517 373.562 38.8567 373.562 40.8C373.562 42.5967 373.947 44.21 374.717 45.64C375.487 47.07 376.569 48.2067 377.962 49.05C379.355 49.8567 380.95 50.26 382.747 50.26ZM417.328 31.065V27.215H420.573V21.77C420.573 18.9467 421.215 16.8017 422.498 15.335C423.818 13.8683 425.688 13.135 428.108 13.135C430.381 13.135 432.453 13.7217 434.323 14.895L433.333 18.69C431.5 17.7367 429.941 17.26 428.658 17.26C426.238 17.26 425.028 18.91 425.028 22.21V27.215H432.618V31.065H425.028V54H420.573V31.065H417.328ZM440.32 22.32C439.403 22.32 438.633 22.0083 438.01 21.385C437.386 20.7617 437.075 20.01 437.075 19.13C437.075 18.25 437.386 17.4983 438.01 16.875C438.633 16.2517 439.403 15.94 440.32 15.94C441.236 15.94 442.006 16.2517 442.63 16.875C443.253 17.4983 443.565 18.25 443.565 19.13C443.565 20.01 443.253 20.7617 442.63 21.385C442.006 22.0083 441.236 22.32 440.32 22.32ZM442.52 27.215V54H438.065V27.215H442.52ZM458.751 54.33C454.131 54.33 451.821 51.5617 451.821 46.025V31.065H448.356V27.215H451.821V18.085L456.276 17.59V27.215H465.131V31.065H456.276V45.365C456.276 47.0517 456.514 48.28 456.991 49.05C457.468 49.7833 458.311 50.15 459.521 50.15C460.878 50.15 462.399 49.6917 464.086 48.775L465.241 52.68C464.361 53.1933 463.426 53.5967 462.436 53.89C461.446 54.1833 460.218 54.33 458.751 54.33ZM475.544 27.215V32.055H475.599C476.663 30.405 478.038 29.14 479.724 28.26C481.411 27.3433 483.281 26.885 485.334 26.885C488.304 26.885 490.651 27.8383 492.374 29.745C494.098 31.615 494.959 34.4017 494.959 38.105V54H490.504V39.37C490.504 33.76 488.304 30.955 483.904 30.955C481.338 30.955 479.303 31.8167 477.799 33.54C476.296 35.2633 475.544 37.6283 475.544 40.635V54H471.089V27.215H475.544ZM526.594 40.14C526.594 40.58 526.575 40.9467 526.539 41.24C526.502 41.5333 526.484 41.7717 526.484 41.955H505.584C505.877 44.485 506.849 46.5017 508.499 48.005C510.149 49.5083 512.239 50.26 514.769 50.26C517.995 50.26 520.58 49.0683 522.524 46.685L525.659 49.325C523.055 52.6617 519.37 54.33 514.604 54.33C512 54.33 509.672 53.7617 507.619 52.625C505.565 51.4883 503.952 49.875 502.779 47.785C501.642 45.695 501.074 43.3117 501.074 40.635C501.074 37.995 501.642 35.63 502.779 33.54C503.915 31.45 505.474 29.8183 507.454 28.645C509.47 27.4717 511.744 26.885 514.274 26.885C516.657 26.885 518.784 27.4533 520.654 28.59C522.524 29.7267 523.972 31.3033 524.999 33.32C526.062 35.3367 526.594 37.61 526.594 40.14ZM514.219 30.955C512.055 30.955 510.185 31.615 508.609 32.935C507.069 34.255 506.097 36.0517 505.694 38.325H522.139C521.809 36.0883 520.947 34.31 519.554 32.99C518.16 31.6333 516.382 30.955 514.219 30.955ZM541.21 54.33C537.14 54.33 533.657 53.065 530.76 50.535L533.015 47.125C534.115 48.1883 535.307 48.995 536.59 49.545C537.874 50.095 539.414 50.37 541.21 50.37C542.787 50.37 544.034 50.04 544.95 49.38C545.867 48.6833 546.325 47.8033 546.325 46.74C546.325 46.0067 546.087 45.4017 545.61 44.925C545.134 44.4483 544.565 44.0817 543.905 43.825C543.245 43.5317 541.925 43.0183 539.945 42.285C537.305 41.3683 535.307 40.3417 533.95 39.205C532.594 38.0317 531.915 36.3267 531.915 34.09C531.915 32.7333 532.3 31.505 533.07 30.405C533.84 29.305 534.885 28.4433 536.205 27.82C537.562 27.1967 539.065 26.885 540.715 26.885C544.162 26.885 547.242 27.985 549.955 30.185L547.645 33.705C545.592 31.7983 543.227 30.845 540.55 30.845C539.45 30.845 538.479 31.1383 537.635 31.725C536.829 32.3117 536.425 33.1 536.425 34.09C536.425 35.0433 536.847 35.8317 537.69 36.455C538.534 37.0417 539.799 37.6467 541.485 38.27L542.805 38.765C544.822 39.535 546.344 40.2133 547.37 40.8C548.434 41.35 549.277 42.0833 549.9 43C550.524 43.9167 550.835 45.1083 550.835 46.575C550.835 48.8117 550.01 50.6633 548.36 52.13C546.71 53.5967 544.327 54.33 541.21 54.33ZM565.219 54.33C561.149 54.33 557.666 53.065 554.769 50.535L557.024 47.125C558.124 48.1883 559.316 48.995 560.599 49.545C561.882 50.095 563.422 50.37 565.219 50.37C566.796 50.37 568.042 50.04 568.959 49.38C569.876 48.6833 570.334 47.8033 570.334 46.74C570.334 46.0067 570.096 45.4017 569.619 44.925C569.142 44.4483 568.574 44.0817 567.914 43.825C567.254 43.5317 565.934 43.0183 563.954 42.285C561.314 41.3683 559.316 40.3417 557.959 39.205C556.602 38.0317 555.924 36.3267 555.924 34.09C555.924 32.7333 556.309 31.505 557.079 30.405C557.849 29.305 558.894 28.4433 560.214 27.82C561.571 27.1967 563.074 26.885 564.724 26.885C568.171 26.885 571.251 27.985 573.964 30.185L571.654 33.705C569.601 31.7983 567.236 30.845 564.559 30.845C563.459 30.845 562.487 31.1383 561.644 31.725C560.837 32.3117 560.434 33.1 560.434 34.09C560.434 35.0433 560.856 35.8317 561.699 36.455C562.542 37.0417 563.807 37.6467 565.494 38.27L566.814 38.765C568.831 39.535 570.352 40.2133 571.379 40.8C572.442 41.35 573.286 42.0833 573.909 43C574.532 43.9167 574.844 45.1083 574.844 46.575C574.844 48.8117 574.019 50.6633 572.369 52.13C570.719 53.5967 568.336 54.33 565.219 54.33ZM597.998 27.215L604.763 47.345H604.873L611.033 27.215H614.883L621.153 47.345H621.263L627.973 27.215H632.538L623.298 54H619.118L612.958 34.365H612.903L606.743 54H602.673L593.433 27.215H597.998ZM660.334 40.14C660.334 40.58 660.316 40.9467 660.279 41.24C660.242 41.5333 660.224 41.7717 660.224 41.955H639.324C639.617 44.485 640.589 46.5017 642.239 48.005C643.889 49.5083 645.979 50.26 648.509 50.26C651.736 50.26 654.321 49.0683 656.264 46.685L659.399 49.325C656.796 52.6617 653.111 54.33 648.344 54.33C645.741 54.33 643.412 53.7617 641.359 52.625C639.306 51.4883 637.692 49.875 636.519 47.785C635.382 45.695 634.814 43.3117 634.814 40.635C634.814 37.995 635.382 35.63 636.519 33.54C637.656 31.45 639.214 29.8183 641.194 28.645C643.211 27.4717 645.484 26.885 648.014 26.885C650.397 26.885 652.524 27.4533 654.394 28.59C656.264 29.7267 657.712 31.3033 658.739 33.32C659.802 35.3367 660.334 37.61 660.334 40.14ZM647.959 30.955C645.796 30.955 643.926 31.615 642.349 32.935C640.809 34.255 639.837 36.0517 639.434 38.325H655.879C655.549 36.0883 654.687 34.31 653.294 32.99C651.901 31.6333 650.122 30.955 647.959 30.955ZM680.891 54.33C678.727 54.33 676.821 53.89 675.171 53.01C673.557 52.0933 672.237 50.81 671.211 49.16H671.101V54H666.866V13.52H671.321V31.89H671.376C672.402 30.2767 673.741 29.0483 675.391 28.205C677.041 27.325 678.874 26.885 680.891 26.885C683.384 26.885 685.621 27.49 687.601 28.7C689.581 29.91 691.121 31.5783 692.221 33.705C693.357 35.8317 693.926 38.1967 693.926 40.8C693.926 43.44 693.357 45.7867 692.221 47.84C691.084 49.8933 689.526 51.4883 687.546 52.625C685.566 53.7617 683.347 54.33 680.891 54.33ZM680.286 50.26C682.046 50.26 683.622 49.8567 685.016 49.05C686.409 48.2067 687.491 47.07 688.261 45.64C689.031 44.21 689.416 42.5967 689.416 40.8C689.416 38.8567 688.994 37.1517 688.151 35.685C687.344 34.1817 686.244 33.0267 684.851 32.22C683.457 31.3767 681.917 30.955 680.231 30.955C678.471 30.955 676.894 31.395 675.501 32.275C674.107 33.1183 673.026 34.2917 672.256 35.795C671.486 37.2983 671.101 38.9667 671.101 40.8C671.101 42.6333 671.504 44.2833 672.311 45.75C673.117 47.18 674.217 48.2983 675.611 49.105C677.041 49.875 678.599 50.26 680.286 50.26ZM708.735 54.33C704.665 54.33 701.181 53.065 698.285 50.535L700.54 47.125C701.64 48.1883 702.831 48.995 704.115 49.545C705.398 50.095 706.938 50.37 708.735 50.37C710.311 50.37 711.558 50.04 712.475 49.38C713.391 48.6833 713.85 47.8033 713.85 46.74C713.85 46.0067 713.611 45.4017 713.135 44.925C712.658 44.4483 712.09 44.0817 711.43 43.825C710.77 43.5317 709.45 43.0183 707.47 42.285C704.83 41.3683 702.831 40.3417 701.475 39.205C700.118 38.0317 699.44 36.3267 699.44 34.09C699.44 32.7333 699.825 31.505 700.595 30.405C701.365 29.305 702.41 28.4433 703.73 27.82C705.086 27.1967 706.59 26.885 708.24 26.885C711.686 26.885 714.766 27.985 717.48 30.185L715.17 33.705C713.116 31.7983 710.751 30.845 708.075 30.845C706.975 30.845 706.003 31.1383 705.16 31.725C704.353 32.3117 703.95 33.1 703.95 34.09C703.95 35.0433 704.371 35.8317 705.215 36.455C706.058 37.0417 707.323 37.6467 709.01 38.27L710.33 38.765C712.346 39.535 713.868 40.2133 714.895 40.8C715.958 41.35 716.801 42.0833 717.425 43C718.048 43.9167 718.36 45.1083 718.36 46.575C718.36 48.8117 717.535 50.6633 715.885 52.13C714.235 53.5967 711.851 54.33 708.735 54.33ZM727.244 22.32C726.327 22.32 725.557 22.0083 724.934 21.385C724.31 20.7617 723.999 20.01 723.999 19.13C723.999 18.25 724.31 17.4983 724.934 16.875C725.557 16.2517 726.327 15.94 727.244 15.94C728.16 15.94 728.93 16.2517 729.554 16.875C730.177 17.4983 730.489 18.25 730.489 19.13C730.489 20.01 730.177 20.7617 729.554 21.385C728.93 22.0083 728.16 22.32 727.244 22.32ZM729.444 27.215V54H724.989V27.215H729.444ZM745.675 54.33C741.055 54.33 738.745 51.5617 738.745 46.025V31.065H735.28V27.215H738.745V18.085L743.2 17.59V27.215H752.055V31.065H743.2V45.365C743.2 47.0517 743.438 48.28 743.915 49.05C744.392 49.7833 745.235 50.15 746.445 50.15C747.802 50.15 749.323 49.6917 751.01 48.775L752.165 52.68C751.285 53.1933 750.35 53.5967 749.36 53.89C748.37 54.1833 747.142 54.33 745.675 54.33ZM780.539 40.14C780.539 40.58 780.521 40.9467 780.484 41.24C780.447 41.5333 780.429 41.7717 780.429 41.955H759.529C759.822 44.485 760.794 46.5017 762.444 48.005C764.094 49.5083 766.184 50.26 768.714 50.26C771.941 50.26 774.526 49.0683 776.469 46.685L779.604 49.325C777.001 52.6617 773.316 54.33 768.549 54.33C765.946 54.33 763.617 53.7617 761.564 52.625C759.511 51.4883 757.897 49.875 756.724 47.785C755.587 45.695 755.019 43.3117 755.019 40.635C755.019 37.995 755.587 35.63 756.724 33.54C757.861 31.45 759.419 29.8183 761.399 28.645C763.416 27.4717 765.689 26.885 768.219 26.885C770.602 26.885 772.729 27.4533 774.599 28.59C776.469 29.7267 777.917 31.3033 778.944 33.32C780.007 35.3367 780.539 37.61 780.539 40.14ZM768.164 30.955C766.001 30.955 764.131 31.615 762.554 32.935C761.014 34.255 760.042 36.0517 759.639 38.325H776.084C775.754 36.0883 774.892 34.31 773.499 32.99C772.106 31.6333 770.327 30.955 768.164 30.955Z" fill="black"/>
</svg>
